@startuml EmpresaPanificadora
class Laboratorio{}
class Mezclas {}
class Manufactura 

class Embalaje {
  +proteccionProducto()
  +manejoTransporte()
  +utilizacionEquipoTransporte()
}

class LineaEmpaque {
  +embalarProducto()
}

class Producto {
  -referencia
  -participacionProduccion
  +getReferencia()
  +getParticipacionProduccion()
}

class Operario {
  -nombre() 
  +realizarVerificacion()
}

class Canasta {
  -productoEmbalado
  -cantidad
  -calidad
  
  -fechaEmbalaje
  +verificarCantidad()
  +verificarCalidad()
  +verificarFechaEmbalaje()
}

class GestiónHumana {}
class SeguridadIndustrial{}
EmpresaPanificadora "1" *-- "1" VicepresidenciaEjecutiva
VicepresidenciaEjecutiva "1" *-- "1" Laboratorio
VicepresidenciaEjecutiva "1" *-- "1" Mezclas
VicepresidenciaEjecutiva "1" *-- "1" Manufactura
VicepresidenciaEjecutiva "1" *-- "1" GenerenciaAdministrativa 
VicepresidenciaEjecutiva "1" *-- "1" Mantenimiento 
VicepresidenciaEjecutiva "1" *-- "1" RevisoriaFiscal
Manufactura "1" *-- "1..*" Embalaje
Embalaje "1" *-- "1..*" LineaEmpaque
LineaEmpaque "1" *-- "1..*" Producto
LineaEmpaque "1" *-- "1..*" Operario
Operario "1..*" *-- "1..*" Canasta
VicepresidenciaEjecutiva "1" *-- "1" GestiónHumana
VicepresidenciaEjecutiva "1" *-- "1" SeguridadIndustrial
@enduml